<svg width="400" height="119" viewBox="0 0 400 119" fill="none" xmlns="http://www.w3.org/2000/svg">
<path fill-rule="evenodd" clip-rule="evenodd" d="M37.601 8.93001C37.546 9.07501 37.5 15.698 37.5 23.647C37.5 39.318 37.552 38.5 36.55 38.5C36.247 38.5 36 38.575 36 38.667C36 38.758 35.736 38.833 35.414 38.833C35.092 38.833 34.699 38.904 34.539 38.99C34.29 39.125 33.613 39.31 33.209 39.353C33.14 39.36 32.933 39.449 32.75 39.55C32.567 39.651 32.323 39.75 32.209 39.769C31.787 39.84 28.902 41.072 28.474 41.364C28.231 41.531 27.931 41.672 27.808 41.679C27.684 41.686 27.358 41.835 27.083 42.01C26.808 42.186 26.415 42.418 26.208 42.525C26.002 42.632 25.833 42.783 25.833 42.86C25.833 42.937 25.753 43 25.655 43C25.444 43 23.941 44.004 23.861 44.199C23.831 44.273 23.718 44.333 23.611 44.334C23.504 44.334 23.199 44.521 22.932 44.75C22.666 44.979 22.387 45.167 22.313 45.167C22.239 45.167 21.915 45.429 21.594 45.75C21.274 46.071 20.961 46.333 20.9 46.333C20.839 46.333 20.493 46.615 20.131 46.958C18.013 48.97 17.167 49.817 17.167 49.927C17.167 49.994 16.923 50.298 16.625 50.601C15.86 51.379 15.667 51.627 15.667 51.832C15.667 51.93 15.555 52.053 15.418 52.106C15.281 52.159 15.21 52.269 15.261 52.351C15.312 52.433 15.292 52.501 15.218 52.501C15.144 52.502 14.897 52.783 14.668 53.126C14.44 53.469 14.215 53.788 14.168 53.833C14.004 53.994 13.478 54.92 13.387 55.208C13.336 55.369 13.228 55.5 13.147 55.5C13.066 55.5 13 55.612 13 55.75C13 55.887 12.925 56 12.833 56C12.742 56 12.667 56.112 12.667 56.25C12.667 56.387 12.592 56.5 12.5 56.5C12.408 56.5 12.333 56.65 12.333 56.833C12.333 57.017 12.258 57.167 12.167 57.167C12.075 57.167 12 57.31 12 57.486C12 57.662 11.943 57.831 11.873 57.861C11.683 57.944 10.333 60.734 10.333 61.045C10.333 61.193 10.258 61.36 10.167 61.417C10.075 61.473 10 61.703 10 61.927C10 62.15 9.92501 62.333 9.83301 62.333C9.74201 62.333 9.66701 62.558 9.66701 62.833C9.66701 63.108 9.59201 63.333 9.50001 63.333C9.40801 63.333 9.33301 63.554 9.33301 63.823C9.33301 64.093 9.25801 64.36 9.16701 64.417C9.07501 64.473 9.00001 64.773 9.00001 65.083C9.00001 65.393 8.92501 65.693 8.83301 65.75C8.74201 65.807 8.66701 66.069 8.66701 66.333C8.66701 66.598 8.59201 66.86 8.50001 66.917C8.40801 66.973 8.33301 67.423 8.33301 67.917C8.33301 68.41 8.25801 68.86 8.16701 68.917C8.07501 68.973 8.00001 69.648 8.00001 70.417C8.00001 71.185 7.92701 71.859 7.83801 71.914C7.52601 72.107 7.61301 111.756 7.92601 112.069C8.16001 112.302 9.05801 112.333 15.595 112.333H23V92.5C23 79.389 23.056 72.667 23.167 72.667C23.261 72.667 23.333 72.194 23.333 71.583C23.333 70.972 23.406 70.5 23.5 70.5C23.592 70.5 23.667 70.158 23.667 69.74C23.667 69.276 23.732 69.02 23.833 69.083C23.933 69.145 24 68.946 24 68.593C24 68.267 24.075 68 24.167 68C24.258 68 24.333 67.813 24.333 67.583C24.333 67.354 24.408 67.167 24.5 67.167C24.592 67.167 24.667 66.979 24.667 66.75C24.667 66.521 24.742 66.333 24.833 66.333C24.925 66.333 25 66.146 25 65.917C25 65.688 25.075 65.5 25.167 65.5C25.258 65.5 25.333 65.35 25.333 65.167C25.333 64.983 25.408 64.833 25.5 64.833C25.592 64.833 25.667 64.683 25.667 64.5C25.667 64.317 25.742 64.167 25.833 64.167C25.925 64.167 26 64.073 26.001 63.958C26.001 63.844 26.301 63.355 26.667 62.872C27.034 62.389 27.333 61.92 27.333 61.831C27.333 61.742 27.483 61.576 27.667 61.461C27.85 61.347 28 61.2 28 61.134C28 61.069 28.169 60.839 28.375 60.625C28.581 60.41 28.984 59.975 29.271 59.659C30.076 58.77 31.664 57.333 31.841 57.333C31.928 57.333 32 57.258 32 57.167C32 57.075 32.096 57 32.213 57C32.33 57 32.535 56.85 32.667 56.667C32.799 56.483 33.006 56.333 33.127 56.333C33.248 56.333 33.508 56.183 33.705 56C33.902 55.817 34.161 55.667 34.281 55.667C34.402 55.667 34.5 55.592 34.5 55.5C34.5 55.408 34.644 55.333 34.819 55.333C34.995 55.333 35.164 55.277 35.194 55.208C35.244 55.097 36.437 54.606 37.208 54.38C37.452 54.309 37.746 77.278 37.52 78.708C37.509 78.777 37.569 78.833 37.654 78.833C37.739 78.833 37.849 79.452 37.898 80.208C38.042 82.442 38.186 83.573 38.348 83.742C38.432 83.829 38.5 84.077 38.5 84.294C38.5 84.511 38.573 84.825 38.663 84.992C38.752 85.16 38.843 85.524 38.864 85.803C38.885 86.082 38.962 86.274 39.035 86.229C39.107 86.184 39.167 86.372 39.167 86.647C39.167 86.922 39.242 87.193 39.333 87.25C39.425 87.307 39.5 87.574 39.5 87.843C39.5 88.113 39.575 88.333 39.667 88.333C39.758 88.333 39.833 88.479 39.833 88.657C39.833 88.835 39.908 89.027 40 89.083C40.092 89.14 40.167 89.369 40.167 89.593C40.167 89.817 40.242 90 40.333 90C40.425 90 40.5 90.15 40.5 90.333C40.5 90.517 40.575 90.667 40.667 90.667C40.758 90.667 40.833 90.781 40.833 90.92C40.833 91.318 42.15 94 42.345 94C42.441 94 42.477 94.069 42.425 94.153C42.373 94.238 42.443 94.42 42.582 94.558C42.72 94.696 42.833 94.881 42.833 94.969C42.833 95.142 44.26 97.278 44.615 97.637C44.735 97.758 44.833 97.917 44.833 97.991C44.833 98.065 45.096 98.411 45.417 98.762C45.737 99.112 46 99.456 46 99.526C46 99.596 46.3 99.951 46.667 100.314C47.033 100.677 47.333 101.019 47.333 101.075C47.333 101.13 47.84 101.654 48.458 102.239C50.166 103.852 50.552 104.2 51.341 104.833C51.74 105.154 52.305 105.623 52.597 105.875C52.889 106.127 53.195 106.333 53.277 106.333C53.359 106.333 53.535 106.483 53.667 106.667C53.799 106.85 54.04 107 54.203 107C54.367 107 54.5 107.075 54.5 107.167C54.5 107.258 54.612 107.333 54.75 107.333C54.887 107.333 55 107.394 55 107.469C55 107.543 55.262 107.707 55.583 107.833C55.904 107.959 56.167 108.112 56.167 108.173C56.167 108.234 56.673 108.538 57.292 108.849C57.91 109.161 58.442 109.472 58.472 109.541C58.503 109.61 58.672 109.667 58.847 109.667C59.023 109.667 59.167 109.742 59.167 109.833C59.167 109.925 59.312 110 59.49 110C59.668 110 59.86 110.075 59.917 110.167C59.973 110.258 60.203 110.333 60.427 110.333C60.65 110.333 60.833 110.408 60.833 110.5C60.833 110.592 60.949 110.667 61.091 110.667C61.233 110.667 61.66 110.817 62.039 111C62.419 111.183 62.861 111.333 63.021 111.333C63.182 111.333 63.36 111.408 63.417 111.5C63.473 111.592 63.736 111.667 64 111.667C64.264 111.667 64.522 111.734 64.572 111.816C64.623 111.898 64.946 112.003 65.291 112.049C65.635 112.095 66.217 112.224 66.583 112.336C66.95 112.448 67.625 112.576 68.083 112.62C68.542 112.665 68.992 112.758 69.083 112.828C69.175 112.898 69.84 112.971 70.561 112.989C71.282 113.008 72.036 113.085 72.238 113.162C72.775 113.366 81.691 113.379 82.224 113.177L82.667 113.008V92.421C82.667 78.807 82.61 71.833 82.5 71.833C82.402 71.833 82.333 71.253 82.333 70.427C82.333 69.653 82.258 68.973 82.167 68.917C82.075 68.86 82 68.448 82 68C82 67.552 81.925 67.14 81.833 67.083C81.742 67.027 81.667 66.689 81.667 66.333C81.667 65.977 81.592 65.64 81.5 65.583C81.408 65.527 81.333 65.264 81.333 65C81.333 64.736 81.258 64.473 81.167 64.417C81.075 64.36 81 64.093 81 63.823C81 63.554 80.925 63.333 80.833 63.333C80.742 63.333 80.667 63.108 80.667 62.833C80.667 62.558 80.592 62.333 80.5 62.333C80.408 62.333 80.333 62.108 80.333 61.833C80.333 61.558 80.258 61.333 80.167 61.333C80.075 61.333 80 61.183 80 61C80 60.817 79.925 60.667 79.833 60.667C79.742 60.667 79.667 60.521 79.667 60.343C79.667 60.165 79.592 59.973 79.5 59.917C79.408 59.86 79.333 59.668 79.333 59.49C79.333 59.312 79.258 59.167 79.167 59.167C79.075 59.167 79 59.017 79 58.833C79 58.65 78.925 58.5 78.833 58.5C78.742 58.5 78.667 58.35 78.667 58.167C78.667 57.983 78.592 57.833 78.5 57.833C78.408 57.833 78.333 57.68 78.333 57.493C78.333 57.306 78.183 56.992 78 56.795C77.817 56.598 77.667 56.301 77.667 56.135C77.667 55.969 77.604 55.833 77.528 55.833C77.452 55.833 77.283 55.627 77.153 55.375C77.023 55.123 76.785 54.771 76.625 54.594C76.465 54.416 76.333 54.177 76.333 54.064C76.333 53.95 76.238 53.758 76.122 53.637C76.006 53.516 75.489 52.852 74.974 52.162C73.57 50.282 68.541 45.333 68.035 45.333C67.965 45.333 67.799 45.183 67.667 45C67.535 44.817 67.337 44.667 67.227 44.667C67.117 44.667 67.003 44.604 66.972 44.526C66.907 44.362 64.64 42.862 63.915 42.504C63.641 42.368 63.135 42.086 62.792 41.877C62.448 41.667 62.167 41.54 62.167 41.593C62.167 41.647 62.048 41.572 61.903 41.427C61.758 41.282 61.571 41.206 61.487 41.258C61.402 41.31 61.333 41.274 61.333 41.177C61.333 41.079 61.183 41 61 41C60.817 41 60.667 40.925 60.667 40.833C60.667 40.742 60.517 40.667 60.333 40.667C60.15 40.667 60 40.6 60 40.519C60 40.437 59.719 40.318 59.375 40.253C59.031 40.189 58.563 40.037 58.333 39.915C57.615 39.534 56.51 39.167 56.08 39.167C55.853 39.167 55.667 39.092 55.667 39C55.667 38.908 55.409 38.833 55.093 38.833C54.778 38.833 54.473 38.758 54.417 38.667C54.36 38.575 53.981 38.5 53.573 38.5H52.833V23.783C52.833 12.559 52.786 9.01901 52.633 8.86701C52.29 8.52301 37.734 8.58501 37.601 8.93001ZM53.333 54.44C53.333 54.384 53.577 54.487 53.875 54.668C54.173 54.85 54.585 54.999 54.792 54.999C54.998 55 55.167 55.063 55.167 55.14C55.167 55.218 55.523 55.461 55.958 55.682C56.394 55.903 56.775 56.14 56.806 56.208C56.836 56.277 56.967 56.333 57.097 56.333C57.227 56.333 57.333 56.408 57.333 56.5C57.333 56.592 57.446 56.667 57.583 56.667C57.721 56.667 57.833 56.73 57.833 56.807C57.833 56.884 58.012 57.028 58.231 57.128C58.872 57.42 61.667 59.98 61.667 60.275C61.667 60.358 61.823 60.537 62.014 60.672C62.205 60.806 62.463 61.104 62.587 61.333C62.71 61.563 62.985 61.938 63.198 62.167C63.41 62.396 63.765 62.94 63.985 63.375C64.205 63.81 64.449 64.167 64.526 64.167C64.603 64.167 64.667 64.317 64.667 64.5C64.667 64.683 64.742 64.833 64.833 64.833C64.925 64.833 65 64.983 65 65.167C65 65.35 65.075 65.5 65.167 65.5C65.258 65.5 65.333 65.65 65.333 65.833C65.333 66.017 65.408 66.167 65.5 66.167C65.592 66.167 65.667 66.318 65.667 66.502C65.667 66.687 65.742 66.987 65.833 67.169C65.925 67.351 66.075 67.649 66.167 67.831C66.258 68.013 66.333 68.346 66.333 68.571C66.333 68.796 66.408 69.027 66.5 69.083C66.592 69.14 66.667 69.444 66.667 69.76C66.667 70.075 66.742 70.333 66.833 70.333C66.927 70.333 67 70.802 67 71.407C67 71.997 67.075 72.527 67.167 72.583C67.275 72.651 67.329 76.862 67.32 84.718C67.313 91.336 67.269 96.656 67.223 96.542C67.177 96.427 66.92 96.333 66.653 96.333C66.385 96.333 66.167 96.277 66.167 96.207C66.167 96.138 65.923 95.983 65.625 95.863C65.327 95.743 64.933 95.561 64.75 95.458C64.567 95.356 64.218 95.172 63.976 95.049C63.733 94.927 63.443 94.715 63.33 94.58C63.218 94.444 63.023 94.333 62.896 94.333C62.77 94.333 62.667 94.258 62.667 94.167C62.667 94.075 62.58 94 62.473 94C61.434 94 57.225 89.568 55.825 87C55.601 86.587 55.379 86.212 55.333 86.167C55.105 85.939 54.5 84.596 54.5 84.318C54.5 84.143 54.425 84 54.333 84C54.242 84 54.167 83.817 54.167 83.593C54.167 83.369 54.092 83.14 54 83.083C53.908 83.027 53.833 82.797 53.833 82.573C53.833 82.35 53.758 82.167 53.667 82.167C53.575 82.167 53.5 81.904 53.5 81.583C53.5 81.262 53.425 81 53.333 81C53.242 81 53.167 80.625 53.167 80.167C53.167 79.708 53.092 79.333 53 79.333C52.89 79.333 52.833 75.021 52.833 66.73C52.833 55.545 52.861 54.149 53.083 54.333C53.221 54.447 53.333 54.495 53.333 54.44Z" fill="#1CB484"/>
<path fill-rule="evenodd" clip-rule="evenodd" d="M248 51.333C248 51.425 247.775 51.5 247.5 51.5C247.225 51.5 247 51.575 247 51.667C247 51.758 246.884 51.833 246.742 51.833C246.409 51.833 245.667 52.576 245.667 52.909C245.667 53.051 245.592 53.167 245.5 53.167C245.142 53.167 245.297 56.567 245.667 56.833C245.85 56.965 246 57.207 246 57.37C246 57.543 246.123 57.667 246.297 57.667C246.46 57.667 246.701 57.817 246.833 58C247.049 58.299 247.265 58.333 248.917 58.333C250.569 58.333 250.785 58.299 251 58C251.132 57.817 251.374 57.667 251.537 57.667C251.71 57.667 251.833 57.543 251.833 57.37C251.833 57.207 251.983 56.965 252.167 56.833C252.537 56.567 252.691 53.167 252.333 53.167C252.242 53.167 252.167 53.051 252.167 52.909C252.167 52.576 251.424 51.833 251.091 51.833C250.949 51.833 250.833 51.758 250.833 51.667C250.833 51.575 250.646 51.5 250.417 51.5C250.188 51.5 250 51.425 250 51.333C250 51.241 249.556 51.167 249 51.167C248.444 51.167 248 51.241 248 51.333ZM114.5 73.083V91.667H117.25H120V78.417C120 71.129 120.04 65.167 120.089 65.167C120.259 65.167 121.333 66.324 121.333 66.508C121.333 66.609 121.633 66.981 122 67.333C122.367 67.686 122.667 68.062 122.667 68.17C122.667 68.278 122.881 68.566 123.142 68.81C123.403 69.054 123.734 69.478 123.877 69.752C124.02 70.026 124.369 70.47 124.652 70.74C124.935 71.009 125.167 71.296 125.167 71.378C125.167 71.459 125.467 71.814 125.833 72.167C126.2 72.519 126.5 72.894 126.5 73C126.5 73.106 126.8 73.481 127.167 73.833C127.533 74.186 127.833 74.56 127.833 74.664C127.833 74.769 128.208 75.22 128.667 75.667C129.125 76.113 129.5 76.564 129.5 76.669C129.5 76.774 129.8 77.148 130.167 77.5C130.533 77.852 130.833 78.212 130.833 78.3C130.833 78.388 131.133 78.769 131.5 79.147C131.867 79.525 132.167 79.895 132.167 79.97C132.167 80.045 132.335 80.265 132.542 80.458C133.032 80.918 133.241 81.183 133.505 81.677C133.624 81.901 133.935 82.282 134.194 82.525C134.454 82.768 134.667 83.04 134.667 83.13C134.667 83.22 134.967 83.602 135.333 83.98C135.7 84.358 136 84.734 136 84.817C136 84.899 136.375 85.349 136.833 85.817C137.292 86.285 137.667 86.734 137.667 86.814C137.667 86.894 137.967 87.269 138.333 87.647C138.7 88.025 139 88.377 139 88.43C139 88.483 139.3 88.814 139.667 89.167C140.033 89.519 140.333 89.89 140.333 89.991C140.333 90.093 140.669 90.511 141.079 90.921L141.825 91.667H144.162H146.5V73.083V54.5H143.75H141L140.995 67.958C140.991 78.176 140.944 81.336 140.798 81.083C140.693 80.9 140.395 80.551 140.137 80.308C139.878 80.065 139.667 79.793 139.667 79.703C139.667 79.614 139.367 79.231 139 78.853C138.633 78.475 138.333 78.1 138.333 78.02C138.333 77.939 138.033 77.564 137.667 77.187C137.3 76.809 137 76.419 137 76.32C137 76.221 136.7 75.852 136.333 75.5C135.967 75.148 135.667 74.788 135.667 74.7C135.667 74.612 135.367 74.231 135 73.853C134.633 73.475 134.333 73.123 134.333 73.07C134.333 73.017 134.033 72.686 133.667 72.333C133.3 71.981 133 71.609 133 71.508C133 71.406 132.756 71.066 132.458 70.754C131.832 70.096 131.686 69.914 131.294 69.302C131.136 69.056 130.818 68.666 130.587 68.435C130.356 68.204 130.167 67.946 130.167 67.861C130.167 67.776 129.867 67.398 129.5 67.02C129.133 66.642 128.833 66.267 128.833 66.187C128.833 66.106 128.533 65.731 128.167 65.353C127.8 64.975 127.5 64.623 127.5 64.57C127.5 64.517 127.2 64.186 126.833 63.833C126.467 63.481 126.167 63.106 126.167 63C126.167 62.894 125.867 62.519 125.5 62.167C125.133 61.814 124.833 61.44 124.833 61.336C124.833 61.231 124.458 60.78 124 60.333C123.542 59.887 123.167 59.439 123.167 59.337C123.167 59.139 123.1 59.046 122.334 58.191C122.059 57.883 121.833 57.583 121.832 57.524C121.831 57.465 121.569 57.14 121.249 56.803C120.929 56.465 120.667 56.144 120.667 56.09C120.667 56.036 120.331 55.656 119.921 55.246L119.175 54.5H116.838H114.5V73.083ZM189 60.163V63.333H186.583H184.167V65.583V67.833H186.583H189V77C189 83 189.058 86.167 189.167 86.167C189.258 86.167 189.333 86.385 189.333 86.651C189.333 87.659 191.956 91 192.747 91C192.886 91 193 91.075 193 91.167C193 91.258 193.225 91.333 193.5 91.333C193.775 91.333 194 91.408 194 91.5C194 91.592 194.225 91.667 194.5 91.667C194.775 91.667 195 91.742 195 91.833C195 91.938 196.139 92 198.083 92C200.028 92 201.167 91.938 201.167 91.833C201.167 91.742 201.392 91.667 201.667 91.667C201.942 91.667 202.167 91.592 202.167 91.5C202.167 91.408 202.302 91.333 202.467 91.333C202.839 91.333 203.664 90.961 203.665 90.792C203.666 90.723 203.747 90.667 203.845 90.667C204.184 90.667 204.5 90.189 204.5 89.679C204.5 89.397 204.425 89.167 204.333 89.167C204.242 89.167 204.167 88.984 204.167 88.76C204.167 88.536 204.092 88.307 204 88.25C203.908 88.193 203.833 88.001 203.833 87.823C203.833 87.646 203.758 87.5 203.667 87.5C203.575 87.5 203.5 87.35 203.5 87.167C203.5 86.983 203.43 86.833 203.344 86.833C203.259 86.833 203.165 86.627 203.136 86.375C203.068 85.781 202.441 85.658 202.011 86.154C201.846 86.344 201.588 86.5 201.439 86.5C201.289 86.5 201.167 86.575 201.167 86.667C201.167 86.758 201.017 86.833 200.833 86.833C200.65 86.833 200.5 86.908 200.5 87C200.5 87.1 199.833 87.167 198.833 87.167C197.833 87.167 197.167 87.1 197.167 87C197.167 86.908 197.017 86.833 196.833 86.833C196.65 86.833 196.5 86.758 196.5 86.667C196.5 86.575 196.382 86.5 196.238 86.5C195.879 86.5 195.579 86.169 195.442 85.623C195.379 85.372 195.253 85.167 195.163 85.167C195.074 85.167 195 84.984 195 84.76C195 84.536 194.925 84.307 194.833 84.25C194.726 84.184 194.667 81.248 194.667 75.99V67.833H198.75H202.833V65.583V63.333H198.754H194.674L194.629 60.208L194.583 57.083L191.792 57.038L189 56.992V60.163ZM166.167 62.833C166.167 62.934 165.444 63 164.333 63C163.222 63 162.5 63.066 162.5 63.167C162.5 63.258 162.2 63.333 161.833 63.333C161.467 63.333 161.167 63.408 161.167 63.5C161.167 63.592 160.904 63.667 160.583 63.667C160.262 63.667 160 63.742 160 63.833C160 63.925 159.775 64 159.5 64C159.225 64 159 64.068 159 64.152C159 64.236 158.7 64.355 158.333 64.417C157.967 64.479 157.667 64.598 157.667 64.681C157.667 64.765 157.517 64.833 157.333 64.833C157.15 64.833 157 64.908 157 65C157 65.092 156.902 65.167 156.781 65.167C156.661 65.167 156.402 65.317 156.205 65.5C156.008 65.683 155.764 65.833 155.662 65.833C154.997 65.833 154.745 67.242 155.333 67.667C155.517 67.799 155.667 68.04 155.667 68.203C155.667 68.367 155.742 68.5 155.833 68.5C155.925 68.5 156 68.65 156 68.833C156 69.017 156.075 69.167 156.167 69.167C156.258 69.167 156.333 69.317 156.333 69.5C156.333 69.683 156.408 69.833 156.5 69.833C156.592 69.833 156.667 69.951 156.667 70.095C156.667 70.239 156.774 70.464 156.905 70.595C157.175 70.866 158 70.92 158 70.667C158 70.575 158.078 70.5 158.174 70.5C158.269 70.5 158.508 70.35 158.705 70.167C158.902 69.983 159.161 69.833 159.281 69.833C159.402 69.833 159.5 69.758 159.5 69.667C159.5 69.575 159.65 69.5 159.833 69.5C160.017 69.5 160.167 69.425 160.167 69.333C160.167 69.242 160.317 69.167 160.5 69.167C160.683 69.167 160.833 69.092 160.833 69C160.833 68.908 160.983 68.833 161.167 68.833C161.35 68.833 161.5 68.758 161.5 68.667C161.5 68.575 161.8 68.5 162.167 68.5C162.533 68.5 162.833 68.425 162.833 68.333C162.833 68.242 163.133 68.167 163.5 68.167C163.867 68.167 164.167 68.092 164.167 68C164.167 67.898 164.944 67.833 166.167 67.833C167.389 67.833 168.167 67.898 168.167 68C168.167 68.092 168.425 68.167 168.74 68.167C169.056 68.167 169.36 68.242 169.417 68.333C169.473 68.425 169.665 68.5 169.843 68.5C170.021 68.5 170.167 68.557 170.167 68.626C170.167 68.695 170.407 68.859 170.702 68.989C171.387 69.292 172.208 70.113 172.511 70.798C172.641 71.093 172.805 71.333 172.874 71.333C172.943 71.333 173 71.483 173 71.667C173 71.85 173.075 72 173.167 72C173.262 72 173.333 72.5 173.333 73.167C173.333 73.833 173.405 74.333 173.5 74.333C173.592 74.333 173.667 74.483 173.667 74.667C173.667 74.993 173.556 75 168.583 75C165.306 75 163.5 75.059 163.5 75.167C163.5 75.261 163.031 75.333 162.427 75.333C161.836 75.333 161.307 75.408 161.25 75.5C161.193 75.592 160.889 75.667 160.573 75.667C160.258 75.667 160 75.742 160 75.833C160 75.925 159.775 76 159.5 76C159.225 76 159 76.075 159 76.167C159 76.258 158.85 76.333 158.667 76.333C158.483 76.333 158.333 76.408 158.333 76.5C158.333 76.592 158.2 76.667 158.037 76.667C157.874 76.667 157.632 76.817 157.5 77C157.368 77.183 157.161 77.333 157.041 77.333C156.757 77.333 155.667 78.423 155.667 78.708C155.667 78.828 155.517 79.035 155.333 79.167C155.15 79.299 155 79.54 155 79.703C155 79.867 154.925 80 154.833 80C154.742 80 154.667 80.225 154.667 80.5C154.667 80.775 154.592 81 154.5 81C154.396 81 154.333 81.972 154.333 83.583C154.333 85.194 154.396 86.167 154.5 86.167C154.592 86.167 154.667 86.392 154.667 86.667C154.667 86.942 154.742 87.167 154.833 87.167C154.925 87.167 155 87.317 155 87.5C155 87.683 155.075 87.833 155.167 87.833C155.258 87.833 155.333 87.91 155.333 88.003C155.333 88.273 157.467 90.333 157.747 90.333C157.886 90.333 158 90.408 158 90.5C158 90.592 158.15 90.667 158.333 90.667C158.517 90.667 158.667 90.742 158.667 90.833C158.667 90.925 158.817 91 159 91C159.183 91 159.333 91.075 159.333 91.167C159.333 91.258 159.483 91.333 159.667 91.333C159.85 91.333 160 91.408 160 91.5C160 91.592 160.258 91.667 160.573 91.667C160.889 91.667 161.193 91.742 161.25 91.833C161.313 91.936 162.696 92 164.843 92C167.059 92 168.333 91.939 168.333 91.833C168.333 91.742 168.633 91.667 169 91.667C169.367 91.667 169.667 91.592 169.667 91.5C169.667 91.408 169.892 91.333 170.167 91.333C170.442 91.333 170.667 91.258 170.667 91.167C170.667 91.075 170.817 91 171 91C171.183 91 171.333 90.925 171.333 90.833C171.333 90.742 171.467 90.667 171.63 90.667C171.793 90.667 172.035 90.517 172.167 90.333C172.299 90.15 172.524 90 172.667 90C172.81 90 173.035 89.85 173.167 89.667C173.566 89.112 173.667 89.279 173.667 90.5V91.667H176.417H179.167V81.75C179.167 75.25 179.109 71.833 179 71.833C178.908 71.833 178.833 71.458 178.833 71C178.833 70.542 178.758 70.167 178.667 70.167C178.575 70.167 178.5 69.942 178.5 69.667C178.5 69.392 178.425 69.167 178.333 69.167C178.242 69.167 178.167 69.017 178.167 68.833C178.167 68.65 178.092 68.5 178 68.5C177.908 68.5 177.833 68.35 177.833 68.167C177.833 67.983 177.758 67.833 177.667 67.833C177.575 67.833 177.5 67.699 177.5 67.534C177.5 66.836 175.542 64.861 174.458 64.467C174.206 64.376 174 64.233 174 64.15C174 64.068 173.775 64 173.5 64C173.225 64 173 63.925 173 63.833C173 63.742 172.775 63.667 172.5 63.667C172.225 63.667 172 63.592 172 63.5C172 63.408 171.7 63.333 171.333 63.333C170.967 63.333 170.667 63.258 170.667 63.167C170.667 63.067 170.028 63 169.083 63C168.139 63 167.5 62.933 167.5 62.833C167.5 62.742 167.2 62.667 166.833 62.667C166.467 62.667 166.167 62.742 166.167 62.833ZM307.833 62.833C307.833 62.931 307.25 63 306.417 63C305.583 63 305 63.069 305 63.167C305 63.258 304.7 63.333 304.333 63.333C303.967 63.333 303.667 63.408 303.667 63.5C303.667 63.592 303.442 63.667 303.167 63.667C302.892 63.667 302.667 63.742 302.667 63.833C302.667 63.925 302.517 64 302.333 64C302.15 64 302 64.067 302 64.148C302 64.23 301.756 64.342 301.458 64.398C301.16 64.454 300.699 64.688 300.432 64.917C300.166 65.146 299.885 65.333 299.809 65.333C299.732 65.333 299.444 65.569 299.168 65.858L298.667 66.383V64.858V63.333H295.917H293.167V77.5V91.667H295.917H298.667V84.333C298.667 79.556 298.725 77 298.833 77C298.931 77 299 76.444 299 75.667C299 74.889 299.069 74.333 299.167 74.333C299.258 74.333 299.333 74.108 299.333 73.833C299.333 73.558 299.408 73.333 299.5 73.333C299.592 73.333 299.667 73.108 299.667 72.833C299.667 72.558 299.742 72.333 299.833 72.333C299.925 72.333 300 72.221 300 72.083C300 71.946 300.075 71.833 300.167 71.833C300.258 71.833 300.333 71.721 300.333 71.583C300.333 71.446 300.408 71.333 300.5 71.333C300.592 71.333 300.667 71.256 300.667 71.162C300.667 70.9 302.126 69.5 302.398 69.5C302.531 69.5 302.664 69.444 302.694 69.375C302.787 69.167 304.176 68.5 304.516 68.5C304.69 68.5 304.833 68.425 304.833 68.333C304.833 68.241 305.278 68.167 305.833 68.167C306.389 68.167 306.833 68.093 306.833 68C306.833 67.908 307.054 67.833 307.323 67.833C307.593 67.833 307.86 67.908 307.917 68C307.973 68.092 308.428 68.167 308.927 68.167C309.425 68.167 309.833 68.242 309.833 68.333C309.833 68.425 310.058 68.5 310.333 68.5C310.608 68.5 310.833 68.575 310.833 68.667C310.833 68.758 310.967 68.833 311.13 68.833C311.293 68.833 311.535 68.983 311.667 69.167C311.799 69.35 312.006 69.5 312.128 69.5C312.408 69.5 313.013 70.113 313.32 70.708C313.45 70.96 313.619 71.167 313.695 71.167C313.771 71.167 313.833 71.317 313.833 71.5C313.833 71.683 313.908 71.833 314 71.833C314.092 71.833 314.167 72.021 314.167 72.25C314.167 72.479 314.242 72.667 314.333 72.667C314.425 72.667 314.5 72.967 314.5 73.333C314.5 73.7 314.575 74 314.667 74C314.776 74 314.833 77.056 314.833 82.833V91.667H317.583H320.333V81.583C320.333 74.972 320.276 71.5 320.167 71.5C320.075 71.5 320 71.2 320 70.833C320 70.467 319.925 70.167 319.833 70.167C319.742 70.167 319.667 69.984 319.667 69.76C319.667 69.536 319.592 69.307 319.5 69.25C319.408 69.193 319.333 69.001 319.333 68.823C319.333 68.646 319.258 68.5 319.167 68.5C319.075 68.5 319 68.367 319 68.203C319 68.04 318.85 67.799 318.667 67.667C318.483 67.535 318.333 67.329 318.333 67.21C318.333 66.637 315.604 64.333 314.925 64.333C314.783 64.333 314.667 64.258 314.667 64.167C314.667 64.075 314.517 64 314.333 64C314.15 64 313.999 63.944 313.999 63.875C313.997 63.673 313.14 63.333 312.633 63.333C312.377 63.333 312.167 63.258 312.167 63.167C312.167 63.068 311.556 63 310.667 63C309.778 63 309.167 62.932 309.167 62.833C309.167 62.742 308.867 62.667 308.5 62.667C308.133 62.667 307.833 62.742 307.833 62.833ZM269.333 63.167C269.333 63.258 269.033 63.333 268.667 63.333C268.3 63.333 268 63.408 268 63.5C268 63.592 267.775 63.667 267.5 63.667C267.225 63.667 267 63.742 267 63.833C267 63.925 266.85 64 266.667 64C266.483 64 266.333 64.068 266.333 64.152C266.333 64.236 266.033 64.355 265.667 64.417C265.3 64.479 265 64.589 265 64.661C265 64.734 264.775 64.886 264.5 65C264.225 65.114 264 65.273 264 65.354C264 65.434 263.899 65.5 263.776 65.5C263.506 65.5 261.333 67.599 261.333 67.86C261.333 67.961 261.194 68.166 261.025 68.314C260.657 68.635 260.167 69.546 260.167 69.908C260.167 70.05 260.092 70.167 260 70.167C259.908 70.167 259.833 70.317 259.833 70.5C259.833 70.683 259.758 70.833 259.667 70.833C259.575 70.833 259.5 70.983 259.5 71.167C259.5 71.35 259.425 71.5 259.333 71.5C259.242 71.5 259.167 71.725 259.167 72C259.167 72.275 259.092 72.5 259 72.5C258.908 72.5 258.833 72.8 258.833 73.167C258.833 73.533 258.758 73.833 258.667 73.833C258.561 73.833 258.5 75.167 258.5 77.5C258.5 79.833 258.561 81.167 258.667 81.167C258.758 81.167 258.833 81.392 258.833 81.667C258.833 81.942 258.908 82.167 259 82.167C259.092 82.167 259.167 82.392 259.167 82.667C259.167 82.942 259.242 83.167 259.333 83.167C259.425 83.167 259.5 83.392 259.5 83.667C259.5 83.942 259.575 84.167 259.667 84.167C259.758 84.167 259.833 84.317 259.833 84.5C259.833 84.683 259.908 84.833 260 84.833C260.092 84.833 260.167 84.978 260.167 85.155C260.167 85.332 260.279 85.589 260.417 85.726C260.554 85.864 260.667 86.043 260.667 86.125C260.667 86.208 261.188 86.794 261.825 87.429C263.416 89.015 263.786 89.333 264.041 89.333C264.161 89.333 264.368 89.483 264.5 89.667C264.632 89.85 264.874 90 265.037 90C265.2 90 265.333 90.075 265.333 90.167C265.333 90.258 265.483 90.333 265.667 90.333C265.85 90.333 266 90.408 266 90.5C266 90.592 266.15 90.667 266.333 90.667C266.517 90.667 266.667 90.742 266.667 90.833C266.667 90.925 266.817 91 267 91C267.183 91 267.333 91.075 267.333 91.167C267.333 91.258 267.633 91.333 268 91.333C268.367 91.333 268.667 91.408 268.667 91.5C268.667 91.592 268.929 91.667 269.25 91.667C269.571 91.667 269.833 91.742 269.833 91.833C269.833 91.94 271.194 92 273.583 92C275.972 92 277.333 91.94 277.333 91.833C277.333 91.742 277.633 91.667 278 91.667C278.367 91.667 278.667 91.592 278.667 91.5C278.667 91.408 278.892 91.333 279.167 91.333C279.442 91.333 279.667 91.258 279.667 91.167C279.667 91.075 279.892 91 280.167 91C280.442 91 280.667 90.925 280.667 90.833C280.667 90.742 280.817 90.667 281 90.667C281.183 90.667 281.333 90.592 281.333 90.5C281.333 90.408 281.467 90.333 281.63 90.333C281.793 90.333 282.035 90.183 282.167 90C282.299 89.817 282.505 89.667 282.626 89.667C282.825 89.667 283.187 89.363 284.542 88.059C285.132 87.491 285.121 87.08 284.5 86.5C284.225 86.243 284 85.961 284 85.872C284 85.784 283.594 85.289 283.098 84.772C282.071 83.704 281.679 83.613 281.025 84.292C280.782 84.544 280.377 84.856 280.125 84.987C279.873 85.117 279.667 85.285 279.667 85.361C279.667 85.438 279.554 85.5 279.417 85.5C279.279 85.5 279.167 85.575 279.167 85.667C279.167 85.758 279.054 85.833 278.917 85.833C278.779 85.833 278.667 85.908 278.667 86C278.667 86.092 278.479 86.167 278.25 86.167C278.021 86.167 277.833 86.242 277.833 86.333C277.833 86.425 277.683 86.5 277.5 86.5C277.317 86.5 277.167 86.575 277.167 86.667C277.167 86.758 276.792 86.833 276.333 86.833C275.875 86.833 275.5 86.908 275.5 87C275.5 87.1 274.833 87.167 273.833 87.167C272.833 87.167 272.167 87.1 272.167 87C272.167 86.908 271.792 86.833 271.333 86.833C270.875 86.833 270.5 86.758 270.5 86.667C270.5 86.575 270.275 86.5 270 86.5C269.725 86.5 269.5 86.425 269.5 86.333C269.5 86.242 269.35 86.167 269.167 86.167C268.983 86.167 268.833 86.092 268.833 86C268.833 85.908 268.701 85.833 268.54 85.833C268.379 85.833 268.153 85.683 268.039 85.5C267.924 85.317 267.755 85.167 267.662 85.167C267.393 85.167 265.667 83.367 265.667 83.087C265.667 82.947 265.592 82.833 265.5 82.833C265.408 82.833 265.333 82.721 265.333 82.583C265.333 82.446 265.258 82.333 265.167 82.333C265.075 82.333 265 82.221 265 82.083C265 81.946 264.925 81.833 264.833 81.833C264.742 81.833 264.667 81.646 264.667 81.417C264.667 81.188 264.592 81 264.5 81C264.408 81 264.333 80.775 264.333 80.5C264.333 80.225 264.258 80 264.167 80C264.075 80 264 79.925 264 79.833C264 79.724 267.868 79.667 275.271 79.667H286.541L286.47 76.136C286.419 73.598 286.343 72.586 286.199 72.539C286.09 72.502 286 72.295 286 72.079C286 71.863 285.925 71.64 285.833 71.583C285.742 71.527 285.667 71.335 285.667 71.157C285.667 70.979 285.601 70.833 285.521 70.833C285.441 70.833 285.332 70.617 285.279 70.353C285.226 70.089 285.067 69.757 284.925 69.615C284.783 69.473 284.667 69.239 284.667 69.095C284.667 68.951 284.592 68.833 284.5 68.833C284.408 68.833 284.333 68.724 284.333 68.59C284.333 68.319 281.251 65.167 280.987 65.167C280.895 65.167 280.659 65.018 280.464 64.835C280.268 64.653 279.859 64.457 279.554 64.4C279.249 64.343 279 64.23 279 64.148C279 64.067 278.85 64 278.667 64C278.483 64 278.333 63.925 278.333 63.833C278.333 63.742 278.108 63.667 277.833 63.667C277.558 63.667 277.333 63.592 277.333 63.5C277.333 63.408 277.071 63.333 276.75 63.333C276.429 63.333 276.167 63.258 276.167 63.167C276.167 63.061 274.917 63 272.75 63C270.583 63 269.333 63.061 269.333 63.167ZM338 63.167C338 63.258 337.7 63.333 337.333 63.333C336.967 63.333 336.667 63.408 336.667 63.5C336.667 63.592 336.442 63.667 336.167 63.667C335.892 63.667 335.667 63.742 335.667 63.833C335.667 63.925 335.442 64 335.167 64C334.892 64 334.667 64.067 334.667 64.149C334.667 64.23 334.468 64.347 334.224 64.408C333.68 64.545 332.403 65.403 331.808 66.033C331.565 66.29 331.278 66.5 331.171 66.5C330.921 66.5 330.5 66.919 330.5 67.168C330.5 67.273 330.2 67.648 329.833 68C329.467 68.352 329.167 68.759 329.167 68.904C329.167 69.048 329.092 69.167 329 69.167C328.908 69.167 328.833 69.317 328.833 69.5C328.833 69.683 328.758 69.833 328.667 69.833C328.575 69.833 328.5 69.983 328.5 70.167C328.5 70.35 328.425 70.5 328.333 70.5C328.242 70.5 328.167 70.65 328.167 70.833C328.167 71.017 328.092 71.167 328 71.167C327.908 71.167 327.833 71.392 327.833 71.667C327.833 71.942 327.758 72.167 327.667 72.167C327.575 72.167 327.5 72.425 327.5 72.74C327.5 73.056 327.425 73.36 327.333 73.417C327.231 73.48 327.167 74.807 327.167 76.843C327.167 78.948 327.228 80.167 327.333 80.167C327.425 80.167 327.5 80.467 327.5 80.833C327.5 81.2 327.575 81.5 327.667 81.5C327.758 81.5 327.833 81.65 327.833 81.833C327.833 82.017 327.908 82.167 328 82.167C328.092 82.167 328.167 82.392 328.167 82.667C328.167 82.942 328.242 83.167 328.333 83.167C328.425 83.167 328.5 83.3 328.5 83.463C328.5 83.626 328.65 83.868 328.833 84C329.017 84.132 329.167 84.357 329.167 84.5C329.167 84.643 329.317 84.868 329.5 85C329.683 85.132 329.833 85.342 329.833 85.466C329.833 85.724 331.95 87.833 332.208 87.833C332.301 87.833 332.499 87.966 332.647 88.128C332.795 88.29 333.235 88.571 333.623 88.753C334.012 88.935 334.33 89.14 334.331 89.208C334.332 89.277 334.558 89.333 334.833 89.333C335.108 89.333 335.333 89.408 335.333 89.5C335.333 89.592 335.483 89.667 335.667 89.667C335.85 89.667 336 89.742 336 89.833C336 89.925 336.3 90 336.667 90C337.033 90 337.333 90.075 337.333 90.167C337.333 90.258 337.708 90.333 338.167 90.333C338.625 90.333 339 90.408 339 90.5C339 90.604 339.972 90.667 341.583 90.667C343.194 90.667 344.167 90.604 344.167 90.5C344.167 90.408 344.542 90.333 345 90.333C345.458 90.333 345.833 90.258 345.833 90.167C345.833 90.075 346.058 90 346.333 90C346.608 90 346.833 89.925 346.833 89.833C346.833 89.742 347.058 89.667 347.333 89.667C347.608 89.667 347.833 89.592 347.833 89.5C347.833 89.408 347.983 89.333 348.167 89.333C348.35 89.333 348.501 89.277 348.502 89.208C348.503 89.14 348.81 88.937 349.184 88.758C349.558 88.578 350.157 88.147 350.515 87.799C350.874 87.451 351.215 87.167 351.274 87.167C351.443 87.167 351.162 91.244 350.989 91.306C350.903 91.336 350.833 91.58 350.833 91.847C350.833 92.115 350.758 92.333 350.667 92.333C350.575 92.333 350.5 92.542 350.5 92.797C350.5 93.069 350.362 93.359 350.167 93.5C349.983 93.632 349.833 93.838 349.833 93.958C349.833 94.241 348.408 95.667 348.125 95.667C348.005 95.667 347.799 95.817 347.667 96C347.535 96.183 347.293 96.333 347.13 96.333C346.967 96.333 346.833 96.408 346.833 96.5C346.833 96.592 346.608 96.667 346.333 96.667C346.058 96.667 345.833 96.742 345.833 96.833C345.833 96.925 345.458 97 345 97C344.542 97 344.167 97.075 344.167 97.167C344.167 97.269 343.361 97.333 342.083 97.333C340.806 97.333 340 97.269 340 97.167C340 97.075 339.625 97 339.167 97C338.708 97 338.333 96.925 338.333 96.833C338.333 96.742 338.033 96.667 337.667 96.667C337.3 96.667 337 96.592 337 96.5C337 96.408 336.775 96.333 336.5 96.333C336.225 96.333 336 96.258 336 96.167C336 96.075 335.775 96 335.5 96C335.225 96 335 95.925 335 95.833C335 95.742 334.85 95.667 334.667 95.667C334.483 95.667 334.333 95.592 334.333 95.5C334.333 95.408 334.183 95.333 334 95.333C333.817 95.333 333.667 95.258 333.667 95.167C333.667 95.075 333.533 95 333.37 95C333.207 95 332.965 94.85 332.833 94.667C332.701 94.483 332.465 94.333 332.308 94.333C332.151 94.333 331.975 94.183 331.917 94C331.775 93.553 330.833 93.521 330.833 93.963C330.833 94.126 330.683 94.368 330.5 94.5C330.317 94.632 330.167 94.857 330.167 95C330.167 95.143 330.017 95.368 329.833 95.5C329.65 95.632 329.5 95.857 329.5 96C329.5 96.143 329.35 96.368 329.167 96.5C328.983 96.632 328.833 96.874 328.833 97.037C328.833 97.2 328.758 97.333 328.667 97.333C328.575 97.333 328.5 97.487 328.5 97.674C328.5 98.055 329.198 98.833 329.539 98.833C329.66 98.833 329.868 98.983 330 99.167C330.132 99.35 330.374 99.5 330.537 99.5C330.7 99.5 330.833 99.575 330.833 99.667C330.833 99.758 330.983 99.833 331.167 99.833C331.35 99.833 331.5 99.908 331.5 100C331.5 100.092 331.65 100.167 331.833 100.167C332.017 100.167 332.167 100.242 332.167 100.333C332.167 100.425 332.317 100.5 332.5 100.5C332.683 100.5 332.833 100.575 332.833 100.667C332.833 100.758 333.016 100.833 333.24 100.833C333.464 100.833 333.693 100.908 333.75 101C333.807 101.092 334.036 101.167 334.26 101.167C334.484 101.167 334.667 101.242 334.667 101.333C334.667 101.425 334.967 101.5 335.333 101.5C335.7 101.5 336 101.575 336 101.667C336 101.758 336.375 101.833 336.833 101.833C337.292 101.833 337.667 101.908 337.667 102C337.667 102.107 339.25 102.167 342.083 102.167C344.917 102.167 346.5 102.107 346.5 102C346.5 101.908 346.875 101.833 347.333 101.833C347.792 101.833 348.167 101.758 348.167 101.667C348.167 101.575 348.35 101.5 348.573 101.5C348.797 101.5 349.027 101.425 349.083 101.333C349.14 101.242 349.369 101.167 349.593 101.167C349.817 101.167 350 101.092 350 101C350 100.908 350.15 100.833 350.333 100.833C350.517 100.833 350.667 100.758 350.667 100.667C350.667 100.575 350.8 100.5 350.963 100.5C351.126 100.5 351.368 100.35 351.5 100.167C351.632 99.983 351.837 99.833 351.956 99.833C352.209 99.833 354.667 97.418 354.667 97.169C354.667 97.076 354.742 97 354.833 97C354.925 97 355 96.888 355 96.75C355 96.612 355.075 96.5 355.167 96.5C355.258 96.5 355.333 96.388 355.333 96.25C355.333 96.112 355.408 96 355.5 96C355.592 96 355.667 95.854 355.667 95.677C355.667 95.499 355.742 95.307 355.833 95.25C355.925 95.193 356 94.964 356 94.74C356 94.516 356.075 94.333 356.167 94.333C356.258 94.333 356.333 94.113 356.333 93.843C356.333 93.574 356.408 93.307 356.5 93.25C356.592 93.193 356.667 92.739 356.667 92.24C356.667 91.741 356.742 91.333 356.833 91.333C356.943 91.333 357 86.556 357 77.333V63.333H354.333H351.667V64.917C351.667 66.683 351.655 66.701 351 66C350.743 65.725 350.458 65.5 350.367 65.5C350.276 65.5 349.956 65.271 349.656 64.99C349.356 64.71 348.898 64.438 348.639 64.386C348.379 64.334 348.167 64.226 348.167 64.146C348.167 64.066 347.942 64 347.667 64C347.392 64 347.167 63.925 347.167 63.833C347.167 63.742 347.017 63.667 346.833 63.667C346.65 63.667 346.5 63.592 346.5 63.5C346.5 63.408 346.2 63.333 345.833 63.333C345.467 63.333 345.167 63.258 345.167 63.167C345.167 63.061 343.861 63 341.583 63C339.306 63 338 63.061 338 63.167ZM374.333 63.167C374.333 63.258 374.033 63.333 373.667 63.333C373.3 63.333 373 63.408 373 63.5C373 63.592 372.775 63.667 372.5 63.667C372.225 63.667 372 63.742 372 63.833C372 63.925 371.85 64 371.667 64C371.483 64 371.333 64.075 371.333 64.167C371.333 64.258 371.213 64.333 371.067 64.333C370.696 64.333 369.781 64.786 369.363 65.175C369.171 65.354 368.934 65.5 368.837 65.5C368.601 65.5 366.5 67.61 366.5 67.847C366.5 67.949 366.275 68.243 366 68.5C365.725 68.757 365.5 69.087 365.5 69.234C365.5 69.38 365.425 69.5 365.333 69.5C365.242 69.5 365.167 69.65 365.167 69.833C365.167 70.017 365.092 70.167 365 70.167C364.908 70.167 364.833 70.317 364.833 70.5C364.833 70.683 364.758 70.833 364.667 70.833C364.575 70.833 364.5 70.983 364.5 71.167C364.5 71.35 364.425 71.5 364.333 71.5C364.242 71.5 364.167 71.725 364.167 72C364.167 72.275 364.092 72.5 364 72.5C363.908 72.5 363.833 72.8 363.833 73.167C363.833 73.533 363.758 73.833 363.667 73.833C363.561 73.833 363.5 75.167 363.5 77.5C363.5 79.833 363.561 81.167 363.667 81.167C363.758 81.167 363.833 81.392 363.833 81.667C363.833 81.942 363.908 82.167 364 82.167C364.092 82.167 364.167 82.392 364.167 82.667C364.167 82.942 364.242 83.167 364.333 83.167C364.425 83.167 364.5 83.392 364.5 83.667C364.5 83.942 364.575 84.167 364.667 84.167C364.758 84.167 364.833 84.317 364.833 84.5C364.833 84.683 364.908 84.833 365 84.833C365.092 84.833 365.167 84.967 365.167 85.13C365.167 85.293 365.317 85.535 365.5 85.667C365.683 85.799 365.833 86.006 365.833 86.128C365.833 86.25 366.377 86.871 367.042 87.509C368.691 89.092 368.967 89.333 369.124 89.333C369.199 89.333 369.368 89.483 369.5 89.667C369.632 89.85 369.874 90 370.037 90C370.2 90 370.333 90.075 370.333 90.167C370.333 90.258 370.483 90.333 370.667 90.333C370.85 90.333 371 90.408 371 90.5C371 90.592 371.15 90.667 371.333 90.667C371.517 90.667 371.667 90.742 371.667 90.833C371.667 90.925 371.817 91 372 91C372.183 91 372.333 91.075 372.333 91.167C372.333 91.258 372.633 91.333 373 91.333C373.367 91.333 373.667 91.408 373.667 91.5C373.667 91.592 373.967 91.667 374.333 91.667C374.7 91.667 375 91.742 375 91.833C375 91.94 376.361 92 378.75 92C381.139 92 382.5 91.94 382.5 91.833C382.5 91.742 382.8 91.667 383.167 91.667C383.533 91.667 383.833 91.592 383.833 91.5C383.833 91.408 384.058 91.333 384.333 91.333C384.608 91.333 384.833 91.258 384.833 91.167C384.833 91.075 385.021 91 385.25 91C385.479 91 385.667 90.925 385.667 90.833C385.667 90.742 385.817 90.667 386 90.667C386.183 90.667 386.333 90.592 386.333 90.5C386.333 90.408 386.467 90.333 386.63 90.333C386.793 90.333 387.035 90.183 387.167 90C387.299 89.817 387.505 89.667 387.626 89.667C387.746 89.667 388.099 89.423 388.411 89.125C388.722 88.827 389.205 88.396 389.483 88.167C390.136 87.63 390.141 87.099 389.5 86.5C389.225 86.243 389 85.949 389 85.846C389 85.555 387.207 83.833 386.904 83.833C386.755 83.833 386.424 84.058 386.167 84.333C385.91 84.608 385.596 84.833 385.47 84.833C385.344 84.833 385.132 84.983 385 85.167C384.868 85.35 384.643 85.5 384.5 85.5C384.357 85.5 384.132 85.65 384 85.833C383.859 86.029 383.569 86.167 383.297 86.167C383.042 86.167 382.833 86.242 382.833 86.333C382.833 86.425 382.683 86.5 382.5 86.5C382.317 86.5 382.167 86.575 382.167 86.667C382.167 86.758 381.792 86.833 381.333 86.833C380.875 86.833 380.5 86.908 380.5 87C380.5 87.1 379.833 87.167 378.833 87.167C377.833 87.167 377.167 87.1 377.167 87C377.167 86.908 376.829 86.833 376.417 86.833C376.004 86.833 375.667 86.758 375.667 86.667C375.667 86.575 375.442 86.5 375.167 86.5C374.892 86.5 374.667 86.425 374.667 86.333C374.667 86.242 374.517 86.167 374.333 86.167C374.15 86.167 374 86.092 374 86C374 85.908 373.867 85.833 373.703 85.833C373.54 85.833 373.299 85.683 373.167 85.5C373.035 85.317 372.829 85.167 372.71 85.167C372.406 85.167 370.667 83.396 370.667 83.087C370.667 82.947 370.592 82.833 370.5 82.833C370.408 82.833 370.333 82.721 370.333 82.583C370.333 82.446 370.258 82.333 370.167 82.333C370.075 82.333 370 82.221 370 82.083C370 81.946 369.925 81.833 369.833 81.833C369.742 81.833 369.667 81.646 369.667 81.417C369.667 81.188 369.592 81 369.5 81C369.408 81 369.333 80.775 369.333 80.5C369.333 80.225 369.258 80 369.167 80C369.075 80 369 79.926 369 79.834C369 79.727 372.957 79.654 380.292 79.626L391.583 79.583L391.629 76.708C391.659 74.829 391.615 73.833 391.504 73.833C391.41 73.833 391.333 73.533 391.333 73.167C391.333 72.8 391.258 72.5 391.167 72.5C391.075 72.5 391 72.275 391 72C391 71.725 390.925 71.5 390.833 71.5C390.742 71.5 390.667 71.35 390.667 71.167C390.667 70.983 390.592 70.833 390.5 70.833C390.408 70.833 390.333 70.625 390.333 70.37C390.333 70.098 390.196 69.808 390 69.667C389.817 69.535 389.667 69.293 389.667 69.13C389.667 68.967 389.592 68.833 389.5 68.833C389.408 68.833 389.333 68.72 389.333 68.581C389.333 68.32 386.281 65.167 386.028 65.167C385.949 65.167 385.751 65.018 385.586 64.837C385.422 64.655 385.035 64.459 384.727 64.401C384.419 64.344 384.167 64.23 384.167 64.148C384.167 64.067 384.017 64 383.833 64C383.65 64 383.5 63.925 383.5 63.833C383.5 63.742 383.275 63.667 383 63.667C382.725 63.667 382.5 63.592 382.5 63.5C382.5 63.408 382.2 63.333 381.833 63.333C381.467 63.333 381.167 63.258 381.167 63.167C381.167 63.061 379.917 63 377.75 63C375.583 63 374.333 63.061 374.333 63.167ZM210 73.417C210 80.028 210.057 83.5 210.167 83.5C210.258 83.5 210.333 83.8 210.333 84.167C210.333 84.533 210.408 84.833 210.5 84.833C210.592 84.833 210.667 84.983 210.667 85.167C210.667 85.35 210.742 85.5 210.833 85.5C210.925 85.5 211 85.725 211 86C211 86.275 211.075 86.5 211.167 86.5C211.258 86.5 211.333 86.598 211.333 86.719C211.333 86.839 211.483 87.098 211.667 87.295C211.85 87.492 212 87.731 212 87.826C212 87.922 212.075 88 212.167 88C212.258 88 212.333 88.112 212.333 88.25C212.333 88.388 212.406 88.5 212.496 88.5C212.585 88.5 212.995 88.837 213.408 89.25C213.82 89.662 214.264 90 214.394 90C214.525 90 214.67 90.103 214.719 90.228C214.824 90.502 216.44 91.333 216.866 91.333C217.031 91.333 217.167 91.408 217.167 91.5C217.167 91.592 217.467 91.667 217.833 91.667C218.2 91.667 218.5 91.742 218.5 91.833C218.5 91.932 219.111 92 220 92C220.889 92 221.5 92.068 221.5 92.167C221.5 92.258 221.762 92.333 222.083 92.333C222.404 92.333 222.667 92.258 222.667 92.167C222.667 92.069 223.222 92 224 92C224.778 92 225.333 91.931 225.333 91.833C225.333 91.742 225.633 91.667 226 91.667C226.367 91.667 226.667 91.592 226.667 91.5C226.667 91.408 226.892 91.333 227.167 91.333C227.442 91.333 227.667 91.258 227.667 91.167C227.667 91.075 227.817 91 228 91C228.183 91 228.333 90.925 228.333 90.833C228.333 90.742 228.467 90.667 228.63 90.667C228.793 90.667 229.035 90.517 229.167 90.333C229.299 90.15 229.494 90 229.6 90C229.706 90 230.102 89.7 230.48 89.333C231.372 88.468 231.333 88.431 231.333 90.167V91.667H234.083H236.833V77.5V63.333H234.083H231.333V70.667C231.333 75.444 231.275 78 231.167 78C231.069 78 231 78.556 231 79.333C231 80.111 230.931 80.667 230.833 80.667C230.742 80.667 230.667 80.929 230.667 81.25C230.667 81.571 230.592 81.833 230.5 81.833C230.408 81.833 230.333 81.983 230.333 82.167C230.333 82.35 230.258 82.5 230.167 82.5C230.075 82.5 230 82.65 230 82.833C230 83.017 229.925 83.167 229.833 83.167C229.742 83.167 229.667 83.281 229.667 83.42C229.667 83.729 227.927 85.5 227.624 85.5C227.504 85.5 227.299 85.65 227.167 85.833C227.035 86.017 226.793 86.167 226.63 86.167C226.467 86.167 226.333 86.242 226.333 86.333C226.333 86.425 226.108 86.5 225.833 86.5C225.558 86.5 225.333 86.575 225.333 86.667C225.333 86.758 224.921 86.833 224.417 86.833C223.912 86.833 223.5 86.908 223.5 87C223.5 87.092 223.2 87.167 222.833 87.167C222.467 87.167 222.167 87.092 222.167 87C222.167 86.908 221.796 86.833 221.343 86.833C220.89 86.833 220.473 86.758 220.417 86.667C220.36 86.575 220.131 86.5 219.907 86.5C219.683 86.5 219.5 86.425 219.5 86.333C219.5 86.242 219.367 86.167 219.203 86.167C219.04 86.167 218.799 86.017 218.667 85.833C218.535 85.65 218.327 85.5 218.206 85.5C217.925 85.5 217.321 84.887 217.014 84.292C216.883 84.04 216.715 83.833 216.639 83.833C216.562 83.833 216.5 83.683 216.5 83.5C216.5 83.317 216.425 83.167 216.333 83.167C216.242 83.167 216.167 82.979 216.167 82.75C216.167 82.521 216.092 82.333 216 82.333C215.908 82.333 215.833 82.033 215.833 81.667C215.833 81.3 215.758 81 215.667 81C215.558 81 215.5 77.944 215.5 72.167V63.333H212.75H210V73.417ZM246 78.833C246 89.056 245.943 94.333 245.833 94.333C245.742 94.333 245.667 94.558 245.667 94.833C245.667 95.108 245.592 95.333 245.5 95.333C245.408 95.333 245.333 95.448 245.333 95.589C245.333 95.921 244.254 97 243.922 97C243.782 97 243.667 97.075 243.667 97.167C243.667 97.267 242.972 97.333 241.917 97.333C240.861 97.333 240.167 97.267 240.167 97.167C240.167 97.075 240.017 97 239.833 97C239.65 97 239.5 96.925 239.5 96.833C239.5 96.742 239.367 96.667 239.203 96.667C239.04 96.667 238.799 96.517 238.667 96.333C238.28 95.797 237.5 96.068 237.5 96.738C237.5 96.882 237.425 97 237.333 97C237.242 97 237.167 97.225 237.167 97.5C237.167 97.775 237.092 98 237 98C236.908 98 236.833 98.112 236.833 98.25C236.833 98.388 236.758 98.5 236.667 98.5C236.575 98.5 236.5 98.688 236.5 98.917C236.5 99.146 236.425 99.333 236.333 99.333C236.077 99.333 236.136 100.66 236.405 100.929C236.536 101.06 236.761 101.167 236.905 101.167C237.049 101.167 237.167 101.242 237.167 101.333C237.167 101.425 237.392 101.5 237.667 101.5C237.942 101.5 238.167 101.575 238.167 101.667C238.167 101.758 238.392 101.833 238.667 101.833C238.942 101.833 239.167 101.908 239.167 102C239.167 102.105 240.361 102.167 242.417 102.167C244.472 102.167 245.667 102.105 245.667 102C245.667 101.908 245.892 101.833 246.167 101.833C246.442 101.833 246.667 101.758 246.667 101.667C246.667 101.575 246.817 101.5 247 101.5C247.183 101.5 247.333 101.425 247.333 101.333C247.333 101.242 247.467 101.167 247.63 101.167C247.793 101.167 248.035 101.017 248.167 100.833C248.299 100.65 248.503 100.5 248.62 100.5C248.737 100.5 248.833 100.425 248.833 100.333C248.833 100.242 248.918 100.167 249.022 100.167C249.278 100.167 249.751 99.6 250.002 98.996C250.115 98.723 250.273 98.5 250.354 98.5C250.434 98.5 250.5 98.35 250.5 98.167C250.5 97.983 250.575 97.833 250.667 97.833C250.758 97.833 250.833 97.646 250.833 97.417C250.833 97.188 250.908 97 251 97C251.092 97 251.167 96.775 251.167 96.5C251.167 96.225 251.242 96 251.333 96C251.443 96 251.5 90.444 251.5 79.667V63.333H248.75H246V78.833ZM274.833 68C274.833 68.092 275.058 68.167 275.333 68.167C275.608 68.167 275.833 68.242 275.833 68.333C275.833 68.425 275.983 68.5 276.167 68.5C276.35 68.5 276.5 68.575 276.5 68.667C276.5 68.758 276.65 68.833 276.833 68.833C277.017 68.833 277.167 68.908 277.167 69C277.167 69.092 277.282 69.167 277.422 69.167C277.746 69.167 279.493 71.029 279.821 71.725C279.958 72.014 280.11 72.287 280.16 72.333C280.357 72.515 280.667 73.176 280.667 73.414C280.667 73.553 280.734 73.667 280.817 73.667C280.9 73.667 280.994 74.042 281.026 74.5L281.083 75.334L272.542 75.333C264.111 75.333 264 75.329 264 75C264 74.817 264.075 74.667 264.167 74.667C264.258 74.667 264.333 74.442 264.333 74.167C264.333 73.892 264.408 73.667 264.5 73.667C264.592 73.667 264.667 73.442 264.667 73.167C264.667 72.892 264.742 72.667 264.833 72.667C264.925 72.667 265 72.517 265 72.333C265 72.15 265.075 72 265.167 72C265.258 72 265.333 71.916 265.333 71.813C265.333 71.569 267.673 69.167 267.91 69.167C268.011 69.167 268.201 69.017 268.333 68.833C268.474 68.638 268.765 68.5 269.037 68.5C269.292 68.5 269.5 68.425 269.5 68.333C269.5 68.242 269.725 68.167 270 68.167C270.275 68.167 270.5 68.092 270.5 68C270.5 67.897 271.333 67.833 272.667 67.833C274 67.833 274.833 67.897 274.833 68ZM343.833 68C343.833 68.092 344.133 68.167 344.5 68.167C344.867 68.167 345.167 68.242 345.167 68.333C345.167 68.425 345.392 68.5 345.667 68.5C345.942 68.5 346.167 68.575 346.167 68.667C346.167 68.758 346.317 68.833 346.5 68.833C346.683 68.833 346.833 68.908 346.833 69C346.833 69.092 346.946 69.167 347.083 69.167C347.22 69.167 347.651 69.467 348.04 69.833C348.43 70.2 348.842 70.5 348.957 70.5C349.073 70.5 349.167 70.58 349.167 70.679C349.167 70.777 349.26 70.956 349.375 71.077C349.85 71.577 350.167 72.014 350.167 72.169C350.167 72.259 350.242 72.333 350.333 72.333C350.425 72.333 350.5 72.483 350.5 72.667C350.5 72.85 350.575 73 350.667 73C350.758 73 350.833 73.144 350.833 73.319C350.833 73.495 350.927 73.67 351.042 73.708C351.198 73.76 351.25 74.504 351.25 76.667C351.25 78.83 351.198 79.573 351.042 79.625C350.927 79.663 350.833 79.913 350.833 80.181C350.833 80.448 350.758 80.667 350.667 80.667C350.575 80.667 350.5 80.799 350.5 80.96C350.5 81.121 350.35 81.347 350.167 81.461C349.983 81.576 349.833 81.745 349.833 81.838C349.833 82.086 348.044 83.833 347.79 83.833C347.671 83.833 347.465 83.983 347.333 84.167C347.201 84.35 346.96 84.5 346.797 84.5C346.633 84.5 346.5 84.575 346.5 84.667C346.5 84.758 346.275 84.833 346 84.833C345.725 84.833 345.5 84.908 345.5 85C345.5 85.092 345.281 85.167 345.014 85.167C344.747 85.167 344.502 85.245 344.47 85.34C344.392 85.574 339.774 85.572 339.696 85.338C339.665 85.244 339.42 85.167 339.153 85.167C338.885 85.167 338.667 85.092 338.667 85C338.667 84.908 338.561 84.833 338.432 84.833C338.127 84.833 336.841 84.165 336.427 83.792C336.249 83.631 336.04 83.5 335.963 83.5C335.762 83.5 334.667 82.378 334.667 82.172C334.667 82.077 334.592 82 334.5 82C334.408 82 334.333 81.887 334.333 81.75C334.333 81.612 334.258 81.5 334.167 81.5C334.075 81.5 334 81.387 334 81.25C334 81.112 333.925 81 333.833 81C333.742 81 333.667 80.85 333.667 80.667C333.667 80.483 333.592 80.333 333.5 80.333C333.408 80.333 333.333 80.108 333.333 79.833C333.333 79.558 333.258 79.333 333.167 79.333C333.075 79.333 333 79.033 333 78.667C333 78.3 332.925 78 332.833 78C332.738 78 332.667 77.5 332.667 76.833C332.667 76.167 332.738 75.667 332.833 75.667C332.925 75.667 333 75.292 333 74.833C333 74.375 333.075 74 333.167 74C333.258 74 333.333 73.775 333.333 73.5C333.333 73.225 333.408 73 333.5 73C333.592 73 333.667 72.867 333.667 72.703C333.667 72.54 333.817 72.299 334 72.167C334.183 72.035 334.333 71.867 334.333 71.793C334.333 71.557 336.486 69.5 336.733 69.5C336.865 69.5 336.997 69.444 337.028 69.375C337.108 69.195 338.488 68.5 338.766 68.5C338.895 68.5 339 68.425 339 68.333C339 68.242 339.337 68.167 339.75 68.167C340.162 68.167 340.5 68.092 340.5 68C340.5 67.9 341.167 67.833 342.167 67.833C343.167 67.833 343.833 67.9 343.833 68ZM379.833 68C379.833 68.092 380.058 68.167 380.333 68.167C380.608 68.167 380.833 68.242 380.833 68.333C380.833 68.425 380.931 68.5 381.05 68.5C381.357 68.5 382.164 68.892 382.165 69.042C382.166 69.11 382.281 69.167 382.42 69.167C382.749 69.167 384.833 71.251 384.833 71.58C384.833 71.719 384.908 71.833 385 71.833C385.092 71.833 385.167 71.946 385.167 72.083C385.167 72.221 385.242 72.333 385.333 72.333C385.425 72.333 385.5 72.483 385.5 72.667C385.5 72.85 385.575 73 385.667 73C385.758 73 385.833 73.15 385.833 73.333C385.833 73.517 385.908 73.667 386 73.667C386.092 73.667 386.167 74.042 386.167 74.5V75.333H377.583C369.111 75.333 369 75.329 369 75C369 74.817 369.075 74.667 369.167 74.667C369.258 74.667 369.333 74.442 369.333 74.167C369.333 73.892 369.408 73.667 369.5 73.667C369.592 73.667 369.667 73.442 369.667 73.167C369.667 72.892 369.742 72.667 369.833 72.667C369.925 72.667 370 72.517 370 72.333C370 72.15 370.075 72 370.167 72C370.258 72 370.333 71.921 370.333 71.824C370.333 71.571 372.664 69.291 373.208 69.012C373.46 68.883 373.667 68.715 373.667 68.639C373.667 68.562 373.85 68.5 374.073 68.5C374.297 68.5 374.527 68.425 374.583 68.333C374.64 68.242 374.865 68.167 375.083 68.167C375.302 68.167 375.527 68.092 375.583 68C375.643 67.903 376.557 67.833 377.76 67.833C379.031 67.833 379.833 67.898 379.833 68ZM173.667 80.907C173.667 81.776 173.592 82.526 173.5 82.583C173.408 82.64 173.333 82.869 173.333 83.093C173.333 83.317 173.271 83.5 173.195 83.5C173.119 83.5 172.95 83.705 172.82 83.956C172.54 84.496 170.915 86.167 170.67 86.167C170.577 86.167 170.5 86.242 170.5 86.333C170.5 86.425 170.35 86.5 170.167 86.5C169.983 86.5 169.833 86.575 169.833 86.667C169.833 86.758 169.683 86.833 169.5 86.833C169.317 86.833 169.167 86.908 169.167 87C169.167 87.092 168.942 87.167 168.667 87.167C168.392 87.167 168.167 87.242 168.167 87.333C168.167 87.428 167.671 87.5 167.014 87.5C166.255 87.5 165.828 87.571 165.764 87.708C165.686 87.875 165.647 87.875 165.569 87.708C165.505 87.571 165.079 87.5 164.319 87.5C163.662 87.5 163.167 87.428 163.167 87.333C163.167 87.242 163.017 87.167 162.833 87.167C162.65 87.167 162.5 87.092 162.5 87C162.5 86.908 162.35 86.833 162.167 86.833C161.983 86.833 161.833 86.758 161.833 86.667C161.833 86.575 161.717 86.5 161.576 86.5C161.434 86.5 161.134 86.316 160.909 86.091C160.684 85.866 160.5 85.566 160.5 85.424C160.5 85.283 160.425 85.167 160.333 85.167C160.242 85.167 160.167 85.017 160.167 84.833C160.167 84.65 160.092 84.5 160 84.5C159.905 84.5 159.833 84 159.833 83.333C159.833 82.667 159.905 82.167 160 82.167C160.092 82.167 160.167 82.052 160.167 81.911C160.167 81.342 161.934 80 162.682 80C162.846 80 163.027 79.925 163.083 79.833C163.14 79.742 163.665 79.667 164.25 79.667C164.835 79.667 165.36 79.592 165.417 79.5C165.481 79.396 167.057 79.333 169.593 79.333H173.667V80.907Z" fill="white"/>
<path fill-rule="evenodd" clip-rule="evenodd" d="M58.407 39.907C58.585 40.05 58.847 40.161 58.99 40.154C59.215 40.142 59.216 40.128 59 40.048C58.862 39.997 58.6 39.886 58.417 39.802C58.089 39.651 58.089 39.652 58.407 39.907ZM71.083 48C71.756 48.689 72.047 48.884 71.645 48.378C71.239 47.865 70.685 47.333 70.557 47.333C70.488 47.333 70.725 47.633 71.083 48ZM44.333 97.595C44.333 97.648 44.446 97.803 44.583 97.94C44.855 98.212 44.889 98.171 44.732 97.764C44.637 97.516 44.333 97.388 44.333 97.595ZM47.667 101.56C47.667 101.732 48.505 102.551 48.592 102.464C48.631 102.425 48.439 102.178 48.165 101.915C47.891 101.652 47.667 101.493 47.667 101.56ZM51 104.739C51 104.778 51.244 104.976 51.542 105.179L52.083 105.547L51.632 105.107C51.209 104.693 51 104.572 51 104.739Z" fill="#10B85C"/>
<path fill-rule="evenodd" clip-rule="evenodd" d="M58.407 39.907C58.585 40.05 58.847 40.161 58.99 40.154C59.215 40.142 59.216 40.128 59 40.048C58.862 39.997 58.6 39.886 58.417 39.802C58.089 39.651 58.089 39.652 58.407 39.907ZM71.083 48C71.756 48.689 72.047 48.884 71.645 48.378C71.239 47.865 70.685 47.333 70.557 47.333C70.488 47.333 70.725 47.633 71.083 48ZM44.333 97.595C44.333 97.648 44.446 97.803 44.583 97.94C44.855 98.212 44.889 98.171 44.732 97.764C44.637 97.516 44.333 97.388 44.333 97.595ZM47.667 101.56C47.667 101.732 48.505 102.551 48.592 102.464C48.631 102.425 48.439 102.178 48.165 101.915C47.891 101.652 47.667 101.493 47.667 101.56ZM51 104.739C51 104.778 51.244 104.976 51.542 105.179L52.083 105.547L51.632 105.107C51.209 104.693 51 104.572 51 104.739Z" fill="#10B85C"/>
<path fill-rule="evenodd" clip-rule="evenodd" d="M58.407 39.907C58.585 40.05 58.847 40.161 58.99 40.154C59.215 40.142 59.216 40.128 59 40.048C58.862 39.997 58.6 39.886 58.417 39.802C58.089 39.651 58.089 39.652 58.407 39.907ZM71.083 48C71.756 48.689 72.047 48.884 71.645 48.378C71.239 47.865 70.685 47.333 70.557 47.333C70.488 47.333 70.725 47.633 71.083 48ZM44.333 97.595C44.333 97.648 44.446 97.803 44.583 97.94C44.855 98.212 44.889 98.171 44.732 97.764C44.637 97.516 44.333 97.388 44.333 97.595ZM47.667 101.56C47.667 101.732 48.505 102.551 48.592 102.464C48.631 102.425 48.439 102.178 48.165 101.915C47.891 101.652 47.667 101.493 47.667 101.56ZM51 104.739C51 104.778 51.244 104.976 51.542 105.179L52.083 105.547L51.632 105.107C51.209 104.693 51 104.572 51 104.739Z" fill="#10B85C"/>
</svg>
